<?xml version="1.0" encoding="UTF-8" standalone="no"?>
<!DOCTYPE svg PUBLIC "-//W3C//DTD SVG 1.1//EN" "http://www.w3.org/Graphics/SVG/1.1/DTD/svg11.dtd">
<svg width="100%" height="100%" viewBox="0 0 1944 2013" version="1.1" xmlns="http://www.w3.org/2000/svg" xmlns:xlink="http://www.w3.org/1999/xlink" xml:space="preserve" xmlns:serif="http://www.serif.com/" style="fill-rule:evenodd;clip-rule:evenodd;stroke-linejoin:round;stroke-miterlimit:2;">
    <g id="Artboard1" transform="matrix(1,0,0,1,-2116.18,-6.08431)">
        <rect x="2116.18" y="6.084" width="1943" height="2012.14" style="fill:none;"/>
        <g transform="matrix(4.06127,0,0,4.06127,3087.68,1012.15)">
            <g transform="matrix(1,0,0,1,-251,-237)">
                <g transform="matrix(0.1,0,0,-0.1,-7.4791,476.356)">
                    <path d="M2765,4380C2620,4408 2461.58,4386.64 2372.9,4365.07C2274.81,4341.2 2205,4309 2193,4306C2163,4296 2077,4237 2007,4177C1952,4130 1859,4007 1820,3929C1792,3875 1752,3865 1696,3899C1654,3925 1546,3967 1485,3981C1458,3987 1383,3992 1320,3992C1214,3993 1179.17,3982.85 1125,3961C1006,3913 952,3878 879,3803C801,3722 760,3659 717,3553C687,3478 686,3469 686,3335C686,3200 687,3192 720,3110C755,3020 759.676,2997.27 879,2868C939,2803 1002,2760 1091,2724C1197,2682 1210,2679 1345,2679C1469,2679 1481,2681 1565,2713C1669,2752 1749,2800 1812,2863C1836,2888 1870,2911 1886,2914C1913,2920 1925,2915 1969,2878C2096,2775 2118,2758 2178,2725C2237,2692 2374,2649 2480,2629C2580,2611 2678,2619 2829,2656C2999,2698 3035,2717 3190,2849C3292,2937 3295,2938 3322,2924C3337,2916 3373,2887 3403,2859C3486,2781 3562,2734 3654,2705C3733,2680 3806,2681.5 3877,2683C3945.44,2684.45 4019.94,2681.17 4080,2714C4167.5,2761.83 4305,2825 4402,2970C4496,3110 4526,3230 4510,3400C4499,3519 4469,3605 4412,3682C4386,3717 4357,3758 4347,3773C4305,3838 4212,3901 4075,3957C4010,3983 3996,3985 3865,3985C3736,3985 3719,3983 3645,3956C3601,3941 3544,3917 3517,3904C3447,3868 3422,3878 3366,3965C3278,4100 3244,4142 3183,4193C3078,4281 2930,4347 2765,4380Z" style="fill-rule:nonzero;"/>
                    <path d="M3259,2721C3208.66,2682.24 3095.66,2602.59 2965.37,2555.78C2836.84,2509.6 2691.34,2496 2595,2496C2595,2496 2387.77,2502.53 2290,2533C2190,2564.17 2087,2621 1995,2683C1943,2718 1916,2730 1888,2730C1868,2730 1849.77,2723.35 1845,2720C1736.37,2643.78 1724,2636 1637,2598C1553,2561 1287.67,2581.7 1278.63,2511.63C1271.99,2460.12 1376.95,2272.71 1422.6,2065.62C1470.16,1849.81 1485,1668 1522,1633C1543,1613 1671,1639 1740,1650C1809,1660 1912,1675 1970,1684C2103,1704 2410,1723 2605,1724C2789,1724 3113,1704 3235,1685C3353,1667 3452,1652 3520,1644C3550,1640 3656,1612 3676,1625C3717,1651 3758,1949 3769,1983C3780,2017 3859,2278 3916,2397C3968,2507 3970,2535 3925,2536C3667.66,2554.85 3553.93,2581.38 3355,2714C3319,2738 3284,2741 3259,2721Z" style="fill-rule:nonzero;"/>
                    <path d="M2115,1169C2099,1164 2072,1154 2055,1146C2039,1137 2005,1122 1980,1110C1933,1089 1770,992 1742,968C1725,954 1701,939 1589,875C1481,813 1339,779 1276,800C1238,812 1180,890 1180,929C1180,959 1216,1028 1250,1065C1272,1088 1285.83,1112.17 1273,1123C1260.17,1133.83 1203.01,1144.7 1173,1130C1131.17,1109.5 1053.33,1048.33 1022,1000C992.223,954.067 985,945 985,840C985,740 987,732 1019,670C1080,551 1210.83,473.667 1311,428C1405.22,385.044 1516.45,395.84 1620,396C1728.17,396.167 1839,398 1960,429C2227,498 2399,607 2501,770C2533,822 2535,829 2535,920C2535,1013 2534,1016 2500,1062C2473,1097 2447,1117 2390,1144C2321,1177 2307,1180 2230,1179C2183,1179 2132,1174 2115,1169Z" style="fill-rule:nonzero;"/>
                    <path d="M2870,1171C2793,1146 2739,1108 2703,1054C2671,1005 2665,988 2662,928C2658,863 2660,852 2694,786C2714,747 2752,693 2778,666C2864,577 3043,478 3176,446C3209,438 3262,425 3294,416C3375,394 3681,384 3779,399C3965,428 4126,542 4185,685C4242,823 4217,977 4123,1066C4083,1104 4025,1134 3973,1143C3944,1149 3941,1147 3935,1119C3929,1093 3933,1082 3957,1057C4025,983 4037,928 3997,869C3918,752 3791,765 3532,918C3487,945 3442,974 3432,982C3401,1010 3236,1104 3160,1139C3095,1168 3072,1173 2990,1176C2938,1178 2884,1176 2870,1171Z" style="fill-rule:nonzero;"/>
                </g>
            </g>
        </g>
    </g>
</svg>
